{
  "accessors": [
    {
      "bufferView": 2,
      "componentType": 5126,
      "count": 18818,
      "max": [
        235.30694580078125,
        360.5531921386719,
        975.2651977539063
      ],
      "min": [
        -235.30694580078125,
        -353.6089782714844,
        -965.9530639648438
      ],
      "type": "VEC3"
    },
    {
      "bufferView": 2,
      "byteOffset": 225816,
      "componentType": 5126,
      "count": 18818,
      "max": [
        0.9999028444290161,
        0.997294008731842,
        0.9947386980056763
      ],
      "min": [
        -0.9999028444290161,
        -0.9999995827674866,
        -0.9887664318084717
      ],
      "type": "VEC3"
    },
    {
      "bufferView": 1,
      "componentType": 5126,
      "count": 18818,
      "max": [
        0.8313109874725342,
        0.9942280054092407
      ],
      "min": [
        0.12141399830579758,
        0.005772000178694725
      ],
      "type": "VEC2"
    },
    {
      "bufferView": 0,
      "componentType": 5125,
      "count": 28092,
      "type": "SCALAR"
    }
  ],
  "asset": {
    "extras": {
      "author": "CARI'MAM (https://sketchfab.com/CARIMAM)",
      "license": "CC-BY-NC-SA-4.0 (http://creativecommons.org/licenses/by-nc-sa/4.0/)",
      "source": "https://sketchfab.com/3d-models/sperm-whale-9d62dd998b154c3d9043711866186b7a",
      "title": "Sperm whale"
    },
    "generator": "Sketchfab-12.67.0",
    "version": "2.0"
  },
  "bufferViews": [
    {
      "buffer": 0,
      "byteLength": 112368,
      "name": "floatBufferViews",
      "target": 34963
    },
    {
      "buffer": 0,
      "byteLength": 150544,
      "byteOffset": 112368,
      "byteStride": 8,
      "name": "floatBufferViews",
      "target": 34962
    },
    {
      "buffer": 0,
      "byteLength": 451632,
      "byteOffset": 262912,
      "byteStride": 12,
      "name": "floatBufferViews",
      "target": 34962
    }
  ],
  "buffers": [
    {
      "byteLength": 714544,
      "uri": "scene.bin"
    }
  ],
  "images": [
    {
      "uri": "textures/cachalot_lowinitialShadingGroup1_baseColor.png"
    },
    {
      "uri": "textures/cachalot_lowinitialShadingGroup1_metallicRoughness.png"
    }
  ],
  "materials": [
    {
      "doubleSided": true,
      "name": "cachalot_lowinitialShadingGroup1",
      "pbrMetallicRoughness": {
        "baseColorTexture": {
          "index": 0
        },
        "metallicFactor": 0.44143113143760754,
        "metallicRoughnessTexture": {
          "index": 1
        }
      }
    }
  ],
  "meshes": [
    {
      "name": "cachalot_low:polySurface1_cachalot_low:initialShadingGroup1_0",
      "primitives": [
        {
          "attributes": {
            "NORMAL": 1,
            "POSITION": 0,
            "TEXCOORD_0": 2
          },
          "indices": 3,
          "material": 0,
          "mode": 4
        }
      ]
    }
  ],
  "nodes": [
    {
      "children": [
        1
      ],
      "matrix": [
        1.0,
        0.0,
        0.0,
        0.0,
        0.0,
        -0.0011935033835468456,
        -0.9999992847442627,
        0.0,
        0.0,
        0.9999992847442627,
        -0.0011935033835468456,
        0.0,
        0.0,
        -5.555541793000885e-05,
        4.147615618421695e-05,
        1.0
      ],
      "name": "Sketchfab_model"
    },
    {
      "children": [
        2
      ],
      "matrix": [
        0.009999999776482582,
        0.0,
        0.0,
        0.0,
        0.0,
        0.0,
        0.009999999776482582,
        0.0,
        0.0,
        -0.009999999776482582,
        0.0,
        0.0,
        0.0,
        0.0,
        0.0,
        1.0
      ],
      "name": "Grand cachalot_LODa.fbx"
    },
    {
      "children": [
        3
      ],
      "name": "RootNode"
    },
    {
      "children": [
        4
      ],
      "name": "cachalot_low:polySurface1"
    },
    {
      "mesh": 0,
      "name": "cachalot_low:polySurface1_cachalot_low:initialShadingGroup1_0"
    }
  ],
  "samplers": [
    {
      "magFilter": 9729,
      "minFilter": 9987,
      "wrapS": 10497,
      "wrapT": 10497
    }
  ],
  "scene": 0,
  "scenes": [
    {
      "name": "Sketchfab_Scene",
      "nodes": [
        0
      ]
    }
  ],
  "textures": [
    {
      "sampler": 0,
      "source": 0
    },
    {
      "sampler": 0,
      "source": 1
    }
  ]
}
