{
  "accessors": [
    {
      "bufferView": 3,
      "componentType": 5126,
      "count": 147,
      "max": [
        -2016.7293701171875,
        1623.72021484375,
        -1132.6580810546875
      ],
      "min": [
        -134254.984375,
        -107461.3984375,
        -22706.796875
      ],
      "type": "VEC3"
    },
    {
      "bufferView": 3,
      "byteOffset": 1764,
      "componentType": 5126,
      "count": 147,
      "max": [
        0.9999924302101135,
        0.2931066155433655,
        0.9995772838592529
      ],
      "min": [
        -0.9999827146530151,
        -0.9966264963150024,
        -0.999569296836853
      ],
      "type": "VEC3"
    },
    {
      "bufferView": 2,
      "componentType": 5126,
      "count": 147,
      "max": [
        0.9009154438972473,
        0.7529754638671875
      ],
      "min": [
        0.7214675545692444,
        0.5363482236862183
      ],
      "type": "VEC2"
    },
    {
      "bufferView": 1,
      "componentType": 5125,
      "count": 492,
      "type": "SCALAR"
    },
    {
      "bufferView": 3,
      "byteOffset": 3528,
      "componentType": 5126,
      "count": 1449,
      "max": [
        69376.0,
        34768.9921875,
        123898.0
      ],
      "min": [
        -74743.0,
        -1521.5596923828125,
        -121044.0
      ],
      "type": "VEC3"
    },
    {
      "bufferView": 3,
      "byteOffset": 20916,
      "componentType": 5126,
      "count": 1449,
      "max": [
        1.0,
        0.9999966621398926,
        0.9999997615814209
      ],
      "min": [
        -1.0,
        -1.0,
        -0.9998790621757507
      ],
      "type": "VEC3"
    },
    {
      "bufferView": 2,
      "byteOffset": 1176,
      "componentType": 5126,
      "count": 1449,
      "max": [
        0.9265000224113464,
        0.9900000095367432
      ],
      "min": [
        0.009999999776482582,
        0.009999999776482582
      ],
      "type": "VEC2"
    },
    {
      "bufferView": 1,
      "byteOffset": 1968,
      "componentType": 5125,
      "count": 4956,
      "type": "SCALAR"
    },
    {
      "bufferView": 5,
      "componentType": 5126,
      "count": 9,
      "max": [
        1.0,
        1.0299843443417611e-11,
        9.999999747378752e-05,
        0.0,
        9.987263911170885e-05,
        1.0,
        9.986357326852158e-05,
        0.0,
        5.045543730375357e-06,
        9.987262455979362e-05,
        1.0,
        0.0,
        0.0,
        0.0,
        2.6490371851650707e-07,
        1.0
      ],
      "min": [
        9.316137271342395e-12,
        -4.437586366076718e-13,
        -5.781973424351383e-12,
        0.0,
        0.0,
        -5.221486389928032e-06,
        -8.784587640642272e-12,
        0.0,
        -2.3841855573136783e-11,
        -9.986357326852158e-05,
        -5.221486389928032e-06,
        0.0,
        -0.6256473064422607,
        -2.006026029586792,
        -0.646735429763794,
        1.0
      ],
      "type": "MAT4"
    },
    {
      "bufferView": 0,
      "componentType": 5123,
      "count": 1449,
      "type": "VEC4"
    },
    {
      "bufferView": 4,
      "componentType": 5126,
      "count": 1449,
      "max": [
        1.0,
        0.4982811510562897,
        0.21316978335380554,
        0.0
      ],
      "min": [
        0.40000006556510925,
        0.0,
        0.0,
        0.0
      ],
      "type": "VEC4"
    },
    {
      "bufferView": 6,
      "componentType": 5126,
      "count": 41,
      "max": [
        1.3333333730697632
      ],
      "min": [
        0.0
      ],
      "type": "SCALAR"
    },
    {
      "bufferView": 7,
      "componentType": 5126,
      "count": 41,
      "max": [
        4.520162582397461,
        0.002412688685581088,
        2.0346596240997314
      ],
      "min": [
        0.5236353278160095,
        -0.001070565078407526,
        -1.9643970727920532
      ],
      "type": "VEC3"
    },
    {
      "bufferView": 6,
      "byteOffset": 164,
      "componentType": 5126,
      "count": 41,
      "max": [
        1.3333333730697632
      ],
      "min": [
        0.0
      ],
      "type": "SCALAR"
    },
    {
      "bufferView": 8,
      "componentType": 5126,
      "count": 41,
      "max": [
        0.7061691880226135,
        0.5265621542930603,
        0.7084404826164246,
        0.7080426216125488
      ],
      "min": [
        -0.431989848613739,
        -0.705412745475769,
        -0.5260277986526489,
        -0.4319911301136017
      ],
      "type": "VEC4"
    },
    {
      "bufferView": 6,
      "byteOffset": 328,
      "componentType": 5126,
      "count": 40,
      "max": [
        1.3333333730697632
      ],
      "min": [
        0.03333333507180214
      ],
      "type": "SCALAR"
    },
    {
      "bufferView": 7,
      "byteOffset": 492,
      "componentType": 5126,
      "count": 40,
      "max": [
        0.020498085767030716,
        1.6524791717529297,
        0.1531444787979126
      ],
      "min": [
        -0.005652090068906546,
        0.5284821391105652,
        -0.026701955124735832
      ],
      "type": "VEC3"
    },
    {
      "bufferView": 6,
      "byteOffset": 488,
      "componentType": 5126,
      "count": 40,
      "max": [
        1.3333333730697632
      ],
      "min": [
        0.03333333507180214
      ],
      "type": "SCALAR"
    },
    {
      "bufferView": 8,
      "byteOffset": 656,
      "componentType": 5126,
      "count": 40,
      "max": [
        -1.4901162970204496e-08,
        1.1920927533992653e-07,
        -5.680200959053868e-17,
        1.0
      ],
      "min": [
        -1.4901162970204496e-08,
        1.1920927533992653e-07,
        -5.680204929520808e-17,
        1.0
      ],
      "type": "VEC4"
    },
    {
      "bufferView": 6,
      "byteOffset": 648,
      "componentType": 5126,
      "count": 41,
      "max": [
        1.3666666746139526
      ],
      "min": [
        0.03333333507180214
      ],
      "type": "SCALAR"
    },
    {
      "bufferView": 7,
      "byteOffset": 972,
      "componentType": 5126,
      "count": 41,
      "max": [
        2.428330963214772e-16,
        0.0,
        1.0916067361831665
      ],
      "min": [
        2.428330963214772e-16,
        -0.6367709636688232,
        0.0
      ],
      "type": "VEC3"
    },
    {
      "bufferView": 6,
      "byteOffset": 812,
      "componentType": 5126,
      "count": 41,
      "max": [
        1.3666666746139526
      ],
      "min": [
        0.03333333507180214
      ],
      "type": "SCALAR"
    },
    {
      "bufferView": 8,
      "byteOffset": 1296,
      "componentType": 5126,
      "count": 41,
      "max": [
        0.706353485584259,
        -1.8474739374099583e-15,
        1.005891541292121e-15,
        0.9856034517288208
      ],
      "min": [
        0.16907332837581635,
        -2.1035305150572756e-15,
        -2.431686801872675e-16,
        0.7078592777252197
      ],
      "type": "VEC4"
    }
  ],
  "animations": [
    {
      "channels": [
        {
          "sampler": 0,
          "target": {
            "node": 13,
            "path": "translation"
          }
        },
        {
          "sampler": 1,
          "target": {
            "node": 13,
            "path": "rotation"
          }
        },
        {
          "sampler": 2,
          "target": {
            "node": 18,
            "path": "translation"
          }
        },
        {
          "sampler": 3,
          "target": {
            "node": 18,
            "path": "rotation"
          }
        },
        {
          "sampler": 4,
          "target": {
            "node": 17,
            "path": "translation"
          }
        },
        {
          "sampler": 5,
          "target": {
            "node": 17,
            "path": "rotation"
          }
        }
      ],
      "name": "Book_Open",
      "samplers": [
        {
          "input": 11,
          "interpolation": "LINEAR",
          "output": 12
        },
        {
          "input": 13,
          "interpolation": "LINEAR",
          "output": 14
        },
        {
          "input": 15,
          "interpolation": "LINEAR",
          "output": 16
        },
        {
          "input": 17,
          "interpolation": "LINEAR",
          "output": 18
        },
        {
          "input": 19,
          "interpolation": "LINEAR",
          "output": 20
        },
        {
          "input": 21,
          "interpolation": "LINEAR",
          "output": 22
        }
      ]
    }
  ],
  "asset": {
    "extras": {
      "author": "Enalya (https://sketchfab.com/enalya)",
      "license": "SKETCHFAB Standard (https://sketchfab.com/licenses)",
      "source": "https://sketchfab.com/3d-models/book-low-poly-animated-53d4951d3cdd46a5b9bb046038b02981",
      "title": "Book - Low poly - Animated"
    },
    "generator": "Sketchfab-13.2.0",
    "version": "2.0"
  },
  "bufferViews": [
    {
      "buffer": 0,
      "byteLength": 11592,
      "byteStride": 8,
      "name": "shortBufferViews",
      "target": 34962
    },
    {
      "buffer": 0,
      "byteLength": 21792,
      "byteOffset": 11592,
      "name": "floatBufferViews",
      "target": 34963
    },
    {
      "buffer": 0,
      "byteLength": 12768,
      "byteOffset": 33384,
      "byteStride": 8,
      "name": "floatBufferViews",
      "target": 34962
    },
    {
      "buffer": 0,
      "byteLength": 38304,
      "byteOffset": 46152,
      "byteStride": 12,
      "name": "floatBufferViews",
      "target": 34962
    },
    {
      "buffer": 0,
      "byteLength": 23184,
      "byteOffset": 84456,
      "byteStride": 16,
      "name": "floatBufferViews",
      "target": 34962
    },
    {
      "buffer": 0,
      "byteLength": 576,
      "byteOffset": 107640,
      "name": "floatBufferViews"
    },
    {
      "buffer": 0,
      "byteLength": 976,
      "byteOffset": 108216,
      "name": "floatBufferViews"
    },
    {
      "buffer": 0,
      "byteLength": 1464,
      "byteOffset": 109192,
      "byteStride": 12,
      "name": "floatBufferViews"
    },
    {
      "buffer": 0,
      "byteLength": 1952,
      "byteOffset": 110656,
      "byteStride": 16,
      "name": "floatBufferViews"
    }
  ],
  "buffers": [
    {
      "byteLength": 112608,
      "uri": "scene.bin"
    }
  ],
  "extensionsRequired": [
    "KHR_materials_pbrSpecularGlossiness"
  ],
  "extensionsUsed": [
    "KHR_materials_pbrSpecularGlossiness"
  ],
  "images": [
    {
      "uri": "textures/Book_diffuse.png"
    }
  ],
  "materials": [
    {
      "doubleSided": true,
      "extensions": {
        "KHR_materials_pbrSpecularGlossiness": {
          "diffuseFactor": [
            1.0,
            1.0,
            1.0,
            1.0
          ],
          "diffuseTexture": {
            "index": 0
          },
          "glossinessFactor": 1.0,
          "specularFactor": [
            0.0,
            0.0,
            0.0
          ]
        }
      },
      "name": "Book"
    }
  ],
  "meshes": [
    {
      "name": "Book_Page_Book_0",
      "primitives": [
        {
          "attributes": {
            "NORMAL": 1,
            "POSITION": 0,
            "TEXCOORD_0": 2
          },
          "indices": 3,
          "material": 0,
          "mode": 4
        }
      ]
    },
    {
      "name": "Book_Book_0",
      "primitives": [
        {
          "attributes": {
            "JOINTS_0": 9,
            "NORMAL": 5,
            "POSITION": 4,
            "TEXCOORD_0": 6,
            "WEIGHTS_0": 10
          },
          "indices": 7,
          "material": 0,
          "mode": 4
        }
      ]
    }
  ],
  "nodes": [
    {
      "children": [
        1
      ],
      "matrix": [
        1.0,
        0.0,
        0.0,
        0.0,
        0.0,
        2.220446049250313e-16,
        -1.0,
        0.0,
        0.0,
        1.0,
        2.220446049250313e-16,
        0.0,
        0.0,
        0.0,
        0.0,
        1.0
      ],
      "name": "Sketchfab_model"
    },
    {
      "children": [
        2
      ],
      "matrix": [
        0.009999999776482582,
        0.0,
        0.0,
        0.0,
        0.0,
        0.0,
        0.009999999776482582,
        0.0,
        0.0,
        -0.009999999776482582,
        0.0,
        0.0,
        0.0,
        0.0,
        0.0,
        1.0
      ],
      "name": "ec317714fd144593b93fb5811b052bf0.fbx"
    },
    {
      "children": [
        3
      ],
      "name": "Object_2"
    },
    {
      "children": [
        4,
        5,
        7
      ],
      "name": "RootNode"
    },
    {
      "name": "Book"
    },
    {
      "children": [
        6
      ],
      "name": "Book_Page",
      "rotation": [
        0.0,
        0.0,
        1.0,
        -4.371138828673793e-08
      ],
      "scale": [
        9.999999960041972e-13,
        9.999999960041972e-13,
        9.999999960041972e-13
      ],
      "translation": [
        64541.9921875,
        13894.9658203125,
        61.212406158447266
      ]
    },
    {
      "mesh": 0,
      "name": "Book_Page_Book_0"
    },
    {
      "children": [
        8
      ],
      "name": "Armature",
      "rotation": [
        -0.7071068286895752,
        0.0,
        0.0,
        0.7071067094802856
      ],
      "scale": [
        10000.0,
        10000.0,
        10000.0
      ]
    },
    {
      "children": [
        9,
        11,
        10
      ],
      "name": "Object_8"
    },
    {
      "children": [
        12,
        17
      ],
      "name": "_rootJoint"
    },
    {
      "matrix": [
        0.9999999747378752,
        0.0,
        0.0,
        0.0,
        0.0,
        0.9999999747378808,
        5.282226631602274e-15,
        0.0,
        0.0,
        -5.282226631602274e-15,
        0.9999999747378808,
        0.0,
        0.0,
        0.0,
        0.0,
        1.0
      ],
      "name": "Object_10"
    },
    {
      "mesh": 1,
      "name": "Object_11",
      "skin": 0
    },
    {
      "children": [
        13,
        15
      ],
      "name": "root_00",
      "rotation": [
        0.5000000596046448,
        -0.4999999403953552,
        0.5,
        0.4999999701976776
      ]
    },
    {
      "children": [
        14
      ],
      "name": "L_01",
      "rotation": [
        0.014069190248847008,
        0.7072092890739441,
        -0.7066808938980103,
        0.01610032469034195
      ],
      "scale": [
        1.0,
        1.0000001192092896,
        1.0
      ],
      "translation": [
        4.535240650177002,
        -0.0012418091064319015,
        -1.9643970727920532
      ]
    },
    {
      "name": "L_end_05",
      "rotation": [
        -1.0842021724855044e-19,
        -2.710505431213761e-20,
        -2.938735877055719e-39,
        1.0
      ],
      "translation": [
        -8.881784197001252e-16,
        10.378179550170898,
        0.0
      ]
    },
    {
      "children": [
        16
      ],
      "name": "R_02",
      "rotation": [
        -0.5128875970840454,
        0.5128875970840454,
        -0.4867713153362274,
        0.4867713153362274
      ],
      "scale": [
        1.0000001192092896,
        1.0000001192092896,
        1.0000001192092896
      ],
      "translation": [
        0.5474371910095215,
        -5.293955920339377e-23,
        -1.9160302877426147
      ]
    },
    {
      "name": "R_end_06",
      "rotation": [
        0.0,
        5.790264287871194e-24,
        0.0,
        1.0
      ],
      "translation": [
        -5.293955920339377e-23,
        10.484334945678711,
        1.1102230246251565e-16
      ]
    },
    {
      "children": [
        18
      ],
      "name": "cover_03",
      "rotation": [
        0.16907334327697754,
        -2.089461086045145e-15,
        -2.431687066570471e-16,
        0.9856035709381104
      ],
      "translation": [
        2.428330963214772e-16,
        -0.6379472017288208,
        1.0936230421066284
      ]
    },
    {
      "children": [
        19
      ],
      "name": "bend_04",
      "rotation": [
        -1.4901162970204496e-08,
        1.1920927533992653e-07,
        -5.680201620798358e-17,
        1.0
      ],
      "scale": [
        1.0,
        0.9999998807907104,
        0.9999999403953552
      ],
      "translation": [
        -0.005652090068906546,
        1.6524791717529297,
        0.1531444787979126
      ]
    },
    {
      "name": "bend_end_07",
      "rotation": [
        0.0,
        -3.8050308177439273e-23,
        6.617444900424222e-24,
        1.0
      ],
      "translation": [
        8.673617379884035e-19,
        0.3513680696487427,
        0.0
      ]
    }
  ],
  "samplers": [
    {
      "magFilter": 9729,
      "minFilter": 9987,
      "wrapS": 10497,
      "wrapT": 10497
    }
  ],
  "scene": 0,
  "scenes": [
    {
      "name": "Sketchfab_Scene",
      "nodes": [
        0
      ]
    }
  ],
  "skins": [
    {
      "inverseBindMatrices": 8,
      "joints": [
        9,
        12,
        13,
        14,
        15,
        16,
        17,
        18,
        19
      ],
      "skeleton": 9
    }
  ],
  "textures": [
    {
      "sampler": 0,
      "source": 0
    }
  ]
}
