{
  "accessors": [
    {
      "bufferView": 2,
      "componentType": 5126,
      "count": 920,
      "max": [
        0.9306790828704834,
        2.398411273956299,
        0.9310591220855713
      ],
      "min": [
        -0.9314401149749756,
        0.1984109878540039,
        -0.9310601353645325
      ],
      "type": "VEC3"
    },
    {
      "bufferView": 2,
      "byteOffset": 11040,
      "componentType": 5126,
      "count": 920,
      "max": [
        1.0,
        1.0,
        1.0
      ],
      "min": [
        -1.0,
        -1.0,
        -1.0
      ],
      "type": "VEC3"
    },
    {
      "bufferView": 3,
      "componentType": 5126,
      "count": 920,
      "max": [
        1.0,
        0.0001969292643480003,
        1.0,
        1.0
      ],
      "min": [
        -1.0,
        -0.00019672245252877474,
        -1.0,
        1.0
      ],
      "type": "VEC4"
    },
    {
      "bufferView": 1,
      "componentType": 5126,
      "count": 920,
      "max": [
        0.9933480024337769,
        1.0
      ],
      "min": [
        0.0,
        0.0
      ],
      "type": "VEC2"
    },
    {
      "bufferView": 1,
      "byteOffset": 7360,
      "componentType": 5126,
      "count": 920,
      "max": [
        0.9933480024337769,
        1.0
      ],
      "min": [
        0.0,
        0.0
      ],
      "type": "VEC2"
    },
    {
      "bufferView": 1,
      "byteOffset": 14720,
      "componentType": 5126,
      "count": 920,
      "max": [
        0.9933480024337769,
        1.0
      ],
      "min": [
        0.0,
        0.0
      ],
      "type": "VEC2"
    },
    {
      "bufferView": 1,
      "byteOffset": 22080,
      "componentType": 5126,
      "count": 920,
      "max": [
        0.9933480024337769,
        1.0
      ],
      "min": [
        0.0,
        0.0
      ],
      "type": "VEC2"
    },
    {
      "bufferView": 1,
      "byteOffset": 29440,
      "componentType": 5126,
      "count": 920,
      "max": [
        0.9933480024337769,
        1.0
      ],
      "min": [
        0.0,
        0.0
      ],
      "type": "VEC2"
    },
    {
      "bufferView": 1,
      "byteOffset": 36800,
      "componentType": 5126,
      "count": 920,
      "max": [
        0.9933480024337769,
        1.0
      ],
      "min": [
        0.0,
        0.0
      ],
      "type": "VEC2"
    },
    {
      "bufferView": 1,
      "byteOffset": 44160,
      "componentType": 5126,
      "count": 920,
      "max": [
        0.9933480024337769,
        1.0
      ],
      "min": [
        0.0,
        0.0
      ],
      "type": "VEC2"
    },
    {
      "bufferView": 1,
      "byteOffset": 51520,
      "componentType": 5126,
      "count": 920,
      "max": [
        0.9933480024337769,
        1.0
      ],
      "min": [
        0.0,
        0.0
      ],
      "type": "VEC2"
    },
    {
      "bufferView": 1,
      "byteOffset": 58880,
      "componentType": 5126,
      "count": 920,
      "max": [
        0.9933480024337769,
        1.0
      ],
      "min": [
        0.0,
        0.0
      ],
      "type": "VEC2"
    },
    {
      "bufferView": 1,
      "byteOffset": 66240,
      "componentType": 5126,
      "count": 920,
      "max": [
        0.9933480024337769,
        1.0
      ],
      "min": [
        0.0,
        0.0
      ],
      "type": "VEC2"
    },
    {
      "bufferView": 0,
      "componentType": 5125,
      "count": 2256,
      "type": "SCALAR"
    },
    {
      "bufferView": 2,
      "byteOffset": 22080,
      "componentType": 5126,
      "count": 122,
      "max": [
        0.8821061253547668,
        2.4599132537841797,
        0.8821061253547668
      ],
      "min": [
        -0.8821061253547668,
        0.034996986389160156,
        -0.8821061253547668
      ],
      "type": "VEC3"
    },
    {
      "bufferView": 2,
      "byteOffset": 23544,
      "componentType": 5126,
      "count": 122,
      "max": [
        0.9558330178260803,
        1.0,
        0.9558330178260803
      ],
      "min": [
        -0.9558330178260803,
        -1.0,
        -0.9558330178260803
      ],
      "type": "VEC3"
    },
    {
      "bufferView": 3,
      "byteOffset": 14720,
      "componentType": 5126,
      "count": 122,
      "max": [
        0.9558330774307251,
        0.0,
        0.9558330774307251,
        1.0
      ],
      "min": [
        -0.9558330774307251,
        0.0,
        -0.9558330774307251,
        1.0
      ],
      "type": "VEC4"
    },
    {
      "bufferView": 1,
      "byteOffset": 73600,
      "componentType": 5126,
      "count": 122,
      "max": [
        0.9939730167388916,
        0.9814540147781372
      ],
      "min": [
        0.011074000038206577,
        0.009126000106334686
      ],
      "type": "VEC2"
    },
    {
      "bufferView": 1,
      "byteOffset": 74576,
      "componentType": 5126,
      "count": 122,
      "max": [
        0.9939730167388916,
        0.9814540147781372
      ],
      "min": [
        0.011074000038206577,
        0.009126000106334686
      ],
      "type": "VEC2"
    },
    {
      "bufferView": 1,
      "byteOffset": 75552,
      "componentType": 5126,
      "count": 122,
      "max": [
        0.9939730167388916,
        0.9814540147781372
      ],
      "min": [
        0.011074000038206577,
        0.009126000106334686
      ],
      "type": "VEC2"
    },
    {
      "bufferView": 1,
      "byteOffset": 76528,
      "componentType": 5126,
      "count": 122,
      "max": [
        0.9939730167388916,
        0.9814540147781372
      ],
      "min": [
        0.011074000038206577,
        0.009126000106334686
      ],
      "type": "VEC2"
    },
    {
      "bufferView": 1,
      "byteOffset": 77504,
      "componentType": 5126,
      "count": 122,
      "max": [
        0.9939730167388916,
        0.9814540147781372
      ],
      "min": [
        0.011074000038206577,
        0.009126000106334686
      ],
      "type": "VEC2"
    },
    {
      "bufferView": 1,
      "byteOffset": 78480,
      "componentType": 5126,
      "count": 122,
      "max": [
        0.9939730167388916,
        0.9814540147781372
      ],
      "min": [
        0.011074000038206577,
        0.009126000106334686
      ],
      "type": "VEC2"
    },
    {
      "bufferView": 1,
      "byteOffset": 79456,
      "componentType": 5126,
      "count": 122,
      "max": [
        0.9939730167388916,
        0.9814540147781372
      ],
      "min": [
        0.011074000038206577,
        0.009126000106334686
      ],
      "type": "VEC2"
    },
    {
      "bufferView": 1,
      "byteOffset": 80432,
      "componentType": 5126,
      "count": 122,
      "max": [
        0.9939730167388916,
        0.9814540147781372
      ],
      "min": [
        0.011074000038206577,
        0.009126000106334686
      ],
      "type": "VEC2"
    },
    {
      "bufferView": 1,
      "byteOffset": 81408,
      "componentType": 5126,
      "count": 122,
      "max": [
        0.9939730167388916,
        0.9814540147781372
      ],
      "min": [
        0.011074000038206577,
        0.009126000106334686
      ],
      "type": "VEC2"
    },
    {
      "bufferView": 1,
      "byteOffset": 82384,
      "componentType": 5126,
      "count": 122,
      "max": [
        0.9939730167388916,
        0.9814540147781372
      ],
      "min": [
        0.011074000038206577,
        0.009126000106334686
      ],
      "type": "VEC2"
    },
    {
      "bufferView": 0,
      "byteOffset": 9024,
      "componentType": 5125,
      "count": 204,
      "type": "SCALAR"
    },
    {
      "bufferView": 2,
      "byteOffset": 25008,
      "componentType": 5126,
      "count": 1334,
      "max": [
        1.08457612991333,
        2.6474432945251465,
        1.08457612991333
      ],
      "min": [
        -1.08457612991333,
        -0.17809998989105225,
        -1.08457612991333
      ],
      "type": "VEC3"
    },
    {
      "bufferView": 2,
      "byteOffset": 41016,
      "componentType": 5126,
      "count": 1334,
      "max": [
        1.0,
        1.0,
        1.0
      ],
      "min": [
        -1.0,
        -1.0,
        -1.0
      ],
      "type": "VEC3"
    },
    {
      "bufferView": 3,
      "byteOffset": 16672,
      "componentType": 5126,
      "count": 1334,
      "max": [
        1.0,
        1.0,
        0.9999997019767761,
        1.0
      ],
      "min": [
        -0.9999997019767761,
        -1.0,
        -1.0,
        1.0
      ],
      "type": "VEC4"
    },
    {
      "bufferView": 1,
      "byteOffset": 83360,
      "componentType": 5126,
      "count": 1334,
      "max": [
        0.9828320145606995,
        0.9887009859085083
      ],
      "min": [
        0.009814999997615814,
        0.010765000246465206
      ],
      "type": "VEC2"
    },
    {
      "bufferView": 1,
      "byteOffset": 94032,
      "componentType": 5126,
      "count": 1334,
      "max": [
        0.9828320145606995,
        0.9887009859085083
      ],
      "min": [
        0.009814999997615814,
        0.010765000246465206
      ],
      "type": "VEC2"
    },
    {
      "bufferView": 1,
      "byteOffset": 104704,
      "componentType": 5126,
      "count": 1334,
      "max": [
        0.9828320145606995,
        0.9887009859085083
      ],
      "min": [
        0.009814999997615814,
        0.010765000246465206
      ],
      "type": "VEC2"
    },
    {
      "bufferView": 1,
      "byteOffset": 115376,
      "componentType": 5126,
      "count": 1334,
      "max": [
        0.9828320145606995,
        0.9887009859085083
      ],
      "min": [
        0.009814999997615814,
        0.010765000246465206
      ],
      "type": "VEC2"
    },
    {
      "bufferView": 1,
      "byteOffset": 126048,
      "componentType": 5126,
      "count": 1334,
      "max": [
        0.9828320145606995,
        0.9887009859085083
      ],
      "min": [
        0.009814999997615814,
        0.010765000246465206
      ],
      "type": "VEC2"
    },
    {
      "bufferView": 1,
      "byteOffset": 136720,
      "componentType": 5126,
      "count": 1334,
      "max": [
        0.9828320145606995,
        0.9887009859085083
      ],
      "min": [
        0.009814999997615814,
        0.010765000246465206
      ],
      "type": "VEC2"
    },
    {
      "bufferView": 1,
      "byteOffset": 147392,
      "componentType": 5126,
      "count": 1334,
      "max": [
        0.9828320145606995,
        0.9887009859085083
      ],
      "min": [
        0.009814999997615814,
        0.010765000246465206
      ],
      "type": "VEC2"
    },
    {
      "bufferView": 1,
      "byteOffset": 158064,
      "componentType": 5126,
      "count": 1334,
      "max": [
        0.9828320145606995,
        0.9887009859085083
      ],
      "min": [
        0.009814999997615814,
        0.010765000246465206
      ],
      "type": "VEC2"
    },
    {
      "bufferView": 1,
      "byteOffset": 168736,
      "componentType": 5126,
      "count": 1334,
      "max": [
        0.9828320145606995,
        0.9887009859085083
      ],
      "min": [
        0.009814999997615814,
        0.010765000246465206
      ],
      "type": "VEC2"
    },
    {
      "bufferView": 1,
      "byteOffset": 179408,
      "componentType": 5126,
      "count": 1334,
      "max": [
        0.9828320145606995,
        0.9887009859085083
      ],
      "min": [
        0.009814999997615814,
        0.010765000246465206
      ],
      "type": "VEC2"
    },
    {
      "bufferView": 0,
      "byteOffset": 9840,
      "componentType": 5125,
      "count": 3816,
      "type": "SCALAR"
    }
  ],
  "asset": {
    "extras": {
      "author": "euanford12321 (https://sketchfab.com/euanford12321)",
      "license": "CC-BY-4.0 (http://creativecommons.org/licenses/by/4.0/)",
      "source": "https://sketchfab.com/3d-models/circular-wooden-bookshelf-5b42e06401b448808b2ccc9b6fd3e0ca",
      "title": "Circular Wooden Bookshelf"
    },
    "generator": "Sketchfab-12.68.0",
    "version": "2.0"
  },
  "bufferViews": [
    {
      "buffer": 0,
      "byteLength": 25104,
      "name": "floatBufferViews",
      "target": 34963
    },
    {
      "buffer": 0,
      "byteLength": 190080,
      "byteOffset": 25104,
      "byteStride": 8,
      "name": "floatBufferViews",
      "target": 34962
    },
    {
      "buffer": 0,
      "byteLength": 57024,
      "byteOffset": 215184,
      "byteStride": 12,
      "name": "floatBufferViews",
      "target": 34962
    },
    {
      "buffer": 0,
      "byteLength": 38016,
      "byteOffset": 272208,
      "byteStride": 16,
      "name": "floatBufferViews",
      "target": 34962
    }
  ],
  "buffers": [
    {
      "byteLength": 310224,
      "uri": "scene.bin"
    }
  ],
  "images": [
    {
      "uri": "textures/Outer_Bookshelf_baseColor.png"
    },
    {
      "uri": "textures/Outer_Bookshelf_metallicRoughness.png"
    },
    {
      "uri": "textures/Outer_Bookshelf_normal.png"
    },
    {
      "uri": "textures/Inner_Bookshelf_baseColor.png"
    },
    {
      "uri": "textures/Inner_Bookshelf_metallicRoughness.png"
    },
    {
      "uri": "textures/Inner_Bookshelf_normal.png"
    },
    {
      "uri": "textures/Outer_Bookshelf_TB_baseColor.png"
    },
    {
      "uri": "textures/Outer_Bookshelf_TB_metallicRoughness.png"
    },
    {
      "uri": "textures/Outer_Bookshelf_TB_normal.png"
    }
  ],
  "materials": [
    {
      "doubleSided": true,
      "name": "Outer_Bookshelf",
      "normalTexture": {
        "index": 2
      },
      "occlusionTexture": {
        "index": 1
      },
      "pbrMetallicRoughness": {
        "baseColorTexture": {
          "index": 0
        },
        "metallicFactor": 0.0,
        "metallicRoughnessTexture": {
          "index": 1
        }
      }
    },
    {
      "doubleSided": true,
      "name": "Inner_Bookshelf",
      "normalTexture": {
        "index": 5
      },
      "occlusionTexture": {
        "index": 4
      },
      "pbrMetallicRoughness": {
        "baseColorTexture": {
          "index": 3
        },
        "metallicFactor": 0.0,
        "metallicRoughnessTexture": {
          "index": 4
        }
      }
    },
    {
      "doubleSided": true,
      "name": "Outer_Bookshelf_TB",
      "normalTexture": {
        "index": 8
      },
      "pbrMetallicRoughness": {
        "baseColorTexture": {
          "index": 6
        },
        "metallicFactor": 0.0,
        "metallicRoughnessTexture": {
          "index": 7
        }
      }
    }
  ],
  "meshes": [
    {
      "name": "Outer_Bookshelf_Outer_Bookshelf_0",
      "primitives": [
        {
          "attributes": {
            "NORMAL": 1,
            "POSITION": 0,
            "TANGENT": 2,
            "TEXCOORD_0": 3,
            "TEXCOORD_1": 4,
            "TEXCOORD_2": 5,
            "TEXCOORD_3": 6,
            "TEXCOORD_4": 7,
            "TEXCOORD_5": 8,
            "TEXCOORD_6": 9,
            "TEXCOORD_7": 10,
            "TEXCOORD_8": 11,
            "TEXCOORD_9": 12
          },
          "indices": 13,
          "material": 0,
          "mode": 4
        }
      ]
    },
    {
      "name": "Inner_Bookshelf_Inner_Bookshelf_0",
      "primitives": [
        {
          "attributes": {
            "NORMAL": 15,
            "POSITION": 14,
            "TANGENT": 16,
            "TEXCOORD_0": 17,
            "TEXCOORD_1": 18,
            "TEXCOORD_2": 19,
            "TEXCOORD_3": 20,
            "TEXCOORD_4": 21,
            "TEXCOORD_5": 22,
            "TEXCOORD_6": 23,
            "TEXCOORD_7": 24,
            "TEXCOORD_8": 25,
            "TEXCOORD_9": 26
          },
          "indices": 27,
          "material": 1,
          "mode": 4
        }
      ]
    },
    {
      "name": "Outer_Bookshelf_TB_Outer_Bookshelf_TB_0",
      "primitives": [
        {
          "attributes": {
            "NORMAL": 29,
            "POSITION": 28,
            "TANGENT": 30,
            "TEXCOORD_0": 31,
            "TEXCOORD_1": 32,
            "TEXCOORD_2": 33,
            "TEXCOORD_3": 34,
            "TEXCOORD_4": 35,
            "TEXCOORD_5": 36,
            "TEXCOORD_6": 37,
            "TEXCOORD_7": 38,
            "TEXCOORD_8": 39,
            "TEXCOORD_9": 40
          },
          "indices": 41,
          "material": 2,
          "mode": 4
        }
      ]
    }
  ],
  "nodes": [
    {
      "children": [
        1
      ],
      "matrix": [
        1.0,
        0.0,
        0.0,
        0.0,
        0.0,
        2.220446049250313e-16,
        -1.0,
        0.0,
        0.0,
        1.0,
        2.220446049250313e-16,
        0.0,
        0.0,
        0.0,
        0.0,
        1.0
      ],
      "name": "Sketchfab_model"
    },
    {
      "children": [
        2
      ],
      "matrix": [
        0.009999999776482582,
        0.0,
        0.0,
        0.0,
        0.0,
        0.0,
        0.009999999776482582,
        0.0,
        0.0,
        -0.009999999776482582,
        0.0,
        0.0,
        0.0,
        0.0,
        0.0,
        1.0
      ],
      "name": "560c3a14a6d74b289f4f9e0062053f6e.fbx"
    },
    {
      "children": [
        3,
        5,
        7
      ],
      "name": "RootNode"
    },
    {
      "children": [
        4
      ],
      "name": "Outer_Bookshelf"
    },
    {
      "mesh": 0,
      "name": "Outer_Bookshelf_Outer_Bookshelf_0"
    },
    {
      "children": [
        6
      ],
      "name": "Inner_Bookshelf"
    },
    {
      "mesh": 1,
      "name": "Inner_Bookshelf_Inner_Bookshelf_0"
    },
    {
      "children": [
        8
      ],
      "name": "Outer_Bookshelf_TB"
    },
    {
      "mesh": 2,
      "name": "Outer_Bookshelf_TB_Outer_Bookshelf_TB_0"
    }
  ],
  "samplers": [
    {
      "magFilter": 9729,
      "minFilter": 9987,
      "wrapS": 10497,
      "wrapT": 10497
    }
  ],
  "scene": 0,
  "scenes": [
    {
      "name": "Sketchfab_Scene",
      "nodes": [
        0
      ]
    }
  ],
  "textures": [
    {
      "sampler": 0,
      "source": 0
    },
    {
      "sampler": 0,
      "source": 1
    },
    {
      "sampler": 0,
      "source": 2
    },
    {
      "sampler": 0,
      "source": 3
    },
    {
      "sampler": 0,
      "source": 4
    },
    {
      "sampler": 0,
      "source": 5
    },
    {
      "sampler": 0,
      "source": 6
    },
    {
      "sampler": 0,
      "source": 7
    },
    {
      "sampler": 0,
      "source": 8
    }
  ]
}
